<svg width="132" height="38" viewBox="0 0 132 38" fill="none" xmlns="http://www.w3.org/2000/svg">
<g clip-path="url(#clip0_2_646)">
<path fill-rule="evenodd" clip-rule="evenodd" d="M17.889 13.1797C16.7378 12.4106 15.3845 12 14 12V5C16.7689 5 19.4757 5.82109 21.778 7.35943C24.0803 8.89776 25.8747 11.0843 26.9343 13.6424C27.9939 16.2006 28.2712 19.0155 27.731 21.7313C27.1908 24.447 25.8574 26.9416 23.8995 28.8995C21.9416 30.8574 19.447 32.1908 16.7313 32.731C14.0155 33.2712 11.2006 32.9939 8.64241 31.9343C6.08427 30.8747 3.89776 29.0803 2.35943 26.778C0.821086 24.4757 0 21.7689 0 19H7C7 20.3845 7.41055 21.7378 8.17971 22.889C8.94887 24.0401 10.0421 24.9373 11.3212 25.4672C12.6003 25.997 14.0078 26.1356 15.3656 25.8655C16.7235 25.5954 17.9708 24.9287 18.9498 23.9498C19.9287 22.9708 20.5954 21.7235 20.8655 20.3656C21.1356 19.0078 20.997 17.6003 20.4672 16.3212C19.9373 15.0421 19.0401 13.9489 17.889 13.1797Z" fill="#008C00"/>
<path fill-rule="evenodd" clip-rule="evenodd" d="M7 5C7 5.91926 6.81894 6.82951 6.46716 7.67878C6.11537 8.52807 5.59976 9.29974 4.94975 9.94975C4.29974 10.5998 3.52807 11.1154 2.67878 11.4672C1.8295 11.8189 0.91925 12 3.05977e-07 12L0 19C1.8385 19 3.65901 18.6379 5.35757 17.9343C7.05614 17.2308 8.5995 16.1995 9.89947 14.8995C11.1995 13.5995 12.2307 12.0561 12.9343 10.3576C13.6379 8.65901 14 6.8385 14 5L7 5Z" fill="#008C00"/>
</g>
<path d="M52.884 24.12C52.884 27.62 50.084 30.28 45.212 30.28C40.368 30.28 37.428 27.62 37.176 23.616H40.312C40.452 26.164 42.076 27.816 45.156 27.816C47.704 27.816 49.608 26.612 49.608 24.54C49.608 22.86 48.516 22.02 46.192 21.516L43.28 20.956C40.452 20.396 37.876 18.968 37.876 15.552C37.876 12.164 40.844 9.616 45.016 9.616C49.188 9.616 52.352 12.164 52.604 16.168H49.468C49.3 13.76 47.564 12.08 45.044 12.08C42.44 12.08 41.012 13.62 41.012 15.356C41.012 17.26 42.664 17.932 44.54 18.324L47.508 18.912C50.952 19.612 52.884 21.124 52.884 24.12ZM65.2202 23.896V15.16H68.0482V30H65.4162V27.648C64.6322 29.188 62.8962 30.28 60.8802 30.28C57.8842 30.28 55.8122 28.516 55.8122 24.708V15.16H58.6402V24.148C58.6402 26.724 59.9282 27.788 61.7762 27.788C63.6802 27.788 65.2202 26.22 65.2202 23.896ZM107.775 30.28C103.491 30.28 100.607 27.172 100.607 22.496C100.607 18.1 103.603 14.88 107.691 14.88C112.115 14.88 115.055 18.464 114.551 23.28H103.491C103.715 26.304 105.227 28.068 107.719 28.068C109.819 28.068 111.275 26.92 111.751 24.988H114.551C113.823 28.292 111.275 30.28 107.775 30.28ZM107.635 17.008C105.367 17.008 103.827 18.632 103.519 21.404H111.555C111.415 18.66 109.931 17.008 107.635 17.008ZM120.386 21.628V30H117.558V15.16H120.19V17.624C121.198 15.972 122.878 14.88 124.922 14.88C127.974 14.88 129.99 16.84 129.99 20.396V30H127.162V21.348C127.162 18.8 126.042 17.372 123.942 17.372C122.01 17.372 120.386 18.996 120.386 21.628Z" fill="black"/>
<path d="M83.7356 25.576C83.7356 28.488 81.4676 30.28 77.5196 30.28C73.5996 30.28 71.2756 28.348 70.9956 25.156H73.7116C73.8236 27.004 75.3076 28.152 77.5756 28.152C79.5636 28.152 80.8796 27.452 80.8796 26.052C80.8796 24.82 80.1236 24.288 78.2756 23.924L75.8676 23.476C73.1236 22.944 71.5836 21.544 71.5836 19.304C71.5836 16.7 73.8516 14.88 77.2956 14.88C80.8516 14.88 83.2596 16.784 83.5116 19.836H80.7956C80.6276 18.044 79.3116 17.008 77.3236 17.008C75.5316 17.008 74.3276 17.764 74.3276 19.052C74.3276 20.256 75.0836 20.816 76.8756 21.152L79.3956 21.628C82.3356 22.16 83.7356 23.448 83.7356 25.576ZM98.5833 25.576C98.5833 28.488 96.3153 30.28 92.3673 30.28C88.4473 30.28 86.1233 28.348 85.8433 25.156H88.5593C88.6713 27.004 90.1553 28.152 92.4233 28.152C94.4113 28.152 95.7273 27.452 95.7273 26.052C95.7273 24.82 94.9713 24.288 93.1233 23.924L90.7153 23.476C87.9713 22.944 86.4313 21.544 86.4313 19.304C86.4313 16.7 88.6993 14.88 92.1433 14.88C95.6993 14.88 98.1073 16.784 98.3593 19.836H95.6433C95.4753 18.044 94.1593 17.008 92.1713 17.008C90.3793 17.008 89.1753 17.764 89.1753 19.052C89.1753 20.256 89.9313 20.816 91.7233 21.152L94.2433 21.628C97.1833 22.16 98.5833 23.448 98.5833 25.576Z" fill="#008C00"/>
<defs>
<clipPath id="clip0_2_646">
<rect width="28" height="28" fill="white" transform="translate(0 5)"/>
</clipPath>
</defs>
</svg>
